{"title":"R.I.P.D 2013 720p WEBRiP XViD UNiQUE","uid":8841144,"size":2650687488,"categoryP":"video","categoryS":"hd___movies","magnet":"?xt=urn:btih:e86ee080b7f90a80d3818b404fcd9fc4c8e4d4c7&amp;dn=R.I.P.D+2013+720p+WEBRiP+XViD+UNiQUE&amp;tr=udp%3A%2F%2Ftracker.openbittorrent.com%3A80&amp;tr=udp%3A%2F%2Fopen.demonii.com%3A1337&amp;tr=udp%3A%2F%2Ftracker.coppersurfer.tk%3A6969&amp;tr=udp%3A%2F%2Fexodus.desync.com%3A6969","seeders":1,"leechers":0,"uploader":"TeX","files":3,"time":1377248403,"description":"[img]http://mauricebroaddus.com/wp-content/uploads/2013/07/ripd-poster-189x300.jpg[/img]\n\nFormat : AVI\nFormat/Info : Audio Video Interleave\nFormat profile : OpenDML\nFile size : 2.45 GiB\nDuration : 1h 35mn\nOverall bit rate : 3 661 Kbps\nWriting application : VirtualDubMod 1.5.10.2 (build 2540/release)\nWriting library : VirtualDubMod build 2540/release\n\nVideo\nID : 0\nFormat : MPEG-4 Visual\nFormat profile : Advanced Simple@L5\nFormat settings, BVOP : 2\nFormat settings, QPel : No\nFormat settings, GMC : No warppoints\nFormat settings, Matrix : Default (H.263)\nMuxing mode : Packed bitstream\nCodec ID : XVID\nCodec ID/Hint : XviD\nDuration : 1h 35mn\nBit rate : 3 454 Kbps\nWidth : 1 272 pixels\nHeight : 528 pixels\nDisplay aspect ratio : 2.40:1\nFrame rate : 29.970 fps\nColor space : YUV\nChroma subsampling : 4:2:0\nBit depth : 8 bits\nScan type : Progressive\nCompression mode : Lossy\nBits/(Pixel*Frame) : 0.172\nStream size : 2.31 GiB (94%)\nWriting library : XviD 64\n\nAudio\nID : 1\nFormat : AC-3\nFormat/Info : Audio Coding 3\nMode extension : CM (complete main)\nFormat settings, Endianness : Big\nCodec ID : 2000\nDuration : 1h 35mn\nBit rate mode : Constant\nBit rate : 192 Kbps\nChannel(s) : 2 channels\nChannel positions : Front: L R\nSampling rate : 44.1 KHz\nBit depth : 16 bits\nCompression mode : Lossy\nStream size : 132 MiB (5%)\nAlignment : Split accross interleaves\nInterleave, duration : 33 ms (1.00 video frame)\nInterleave, preload duration : 500 ms\n\n\n","torrent":{"xt":"urn:btih:e86ee080b7f90a80d3818b404fcd9fc4c8e4d4c7","amp;dn":"R.I.P.D+2013+720p+WEBRiP+XViD+UNiQUE","amp;tr":["udp%3A%2F%2Ftracker.openbittorrent.com%3A80","udp%3A%2F%2Fopen.demonii.com%3A1337","udp%3A%2F%2Ftracker.coppersurfer.tk%3A6969","udp%3A%2F%2Fexodus.desync.com%3A6969"],"infoHash":"e86ee080b7f90a80d3818b404fcd9fc4c8e4d4c7","infoHashBuffer":{"type":"Buffer","data":[232,110,224,128,183,249,10,128,211,129,139,64,79,205,159,196,200,228,212,199]},"announce":[],"urlList":[]}}